<?xml version="1.0" encoding="UTF-8"?>
<svg xmlns="http://www.w3.org/2000/svg" xmlns:xlink="http://www.w3.org/1999/xlink" width="338pt" height="126pt" viewBox="0 0 338 126" version="1.1">
<g id="surface1">
<path style=" stroke:none;fill-rule:nonzero;fill:rgb(40%,74.901961%,100%);fill-opacity:1;" d="M 68.75 102.5 L 91.25 102.5 L 91.25 80 L 68.75 80 Z M 68.75 102.5 "/>
<path style="fill:none;stroke-width:1;stroke-linecap:round;stroke-linejoin:round;stroke:rgb(0%,0%,0%);stroke-opacity:1;stroke-miterlimit:10;" d="M 63 108 L 81 108 L 81 126 L 63 126 Z M 63 108 " transform="matrix(1.25,0,0,1.25,-10,-55)"/>
<path style=" stroke:none;fill-rule:nonzero;fill:rgb(100%,100%,100%);fill-opacity:1;" d="M 68.75 57.5 L 91.25 57.5 L 91.25 35 L 68.75 35 Z M 68.75 57.5 "/>
<path style="fill:none;stroke-width:1;stroke-linecap:round;stroke-linejoin:round;stroke:rgb(0%,0%,0%);stroke-opacity:1;stroke-miterlimit:10;" d="M 63 72 L 81 72 L 81 90 L 63 90 Z M 63 72 " transform="matrix(1.25,0,0,1.25,-10,-55)"/>
<path style=" stroke:none;fill-rule:nonzero;fill:rgb(100%,100%,100%);fill-opacity:1;" d="M 68.75 80 L 91.25 80 L 91.25 57.5 L 68.75 57.5 Z M 68.75 80 "/>
<path style="fill:none;stroke-width:1;stroke-linecap:round;stroke-linejoin:round;stroke:rgb(0%,0%,0%);stroke-opacity:1;stroke-miterlimit:10;" d="M 63 90 L 81 90 L 81 108 L 63 108 Z M 63 90 " transform="matrix(1.25,0,0,1.25,-10,-55)"/>
<path style=" stroke:none;fill-rule:nonzero;fill:rgb(100%,100%,100%);fill-opacity:1;" d="M 23.75 102.5 L 46.25 102.5 L 46.25 80 L 23.75 80 Z M 23.75 102.5 "/>
<path style="fill:none;stroke-width:1;stroke-linecap:round;stroke-linejoin:round;stroke:rgb(0%,0%,0%);stroke-opacity:1;stroke-miterlimit:10;" d="M 27 108 L 45 108 L 45 126 L 27 126 Z M 27 108 " transform="matrix(1.25,0,0,1.25,-10,-55)"/>
<path style=" stroke:none;fill-rule:nonzero;fill:rgb(100%,100%,100%);fill-opacity:1;" d="M 46.25 102.5 L 68.75 102.5 L 68.75 80 L 46.25 80 Z M 46.25 102.5 "/>
<path style="fill:none;stroke-width:1;stroke-linecap:round;stroke-linejoin:round;stroke:rgb(0%,0%,0%);stroke-opacity:1;stroke-miterlimit:10;" d="M 45 108 L 63 108 L 63 126 L 45 126 Z M 45 108 " transform="matrix(1.25,0,0,1.25,-10,-55)"/>
<path style=" stroke:none;fill-rule:nonzero;fill:rgb(69.803922%,85.098039%,100%);fill-opacity:1;" d="M 23.75 57.5 L 46.25 57.5 L 46.25 35 L 23.75 35 Z M 23.75 57.5 "/>
<path style="fill:none;stroke-width:1;stroke-linecap:round;stroke-linejoin:round;stroke:rgb(0%,0%,0%);stroke-opacity:1;stroke-miterlimit:10;" d="M 27 72 L 45 72 L 45 90 L 27 90 Z M 27 72 " transform="matrix(1.25,0,0,1.25,-10,-55)"/>
<path style=" stroke:none;fill-rule:nonzero;fill:rgb(100%,100%,100%);fill-opacity:1;" d="M 23.75 80 L 46.25 80 L 46.25 57.5 L 23.75 57.5 Z M 23.75 80 "/>
<path style="fill:none;stroke-width:1;stroke-linecap:round;stroke-linejoin:round;stroke:rgb(0%,0%,0%);stroke-opacity:1;stroke-miterlimit:10;" d="M 27 90 L 45 90 L 45 108 L 27 108 Z M 27 90 " transform="matrix(1.25,0,0,1.25,-10,-55)"/>
<path style=" stroke:none;fill-rule:nonzero;fill:rgb(100%,100%,100%);fill-opacity:1;" d="M 46.25 57.5 L 68.75 57.5 L 68.75 35 L 46.25 35 Z M 46.25 57.5 "/>
<path style="fill:none;stroke-width:1;stroke-linecap:round;stroke-linejoin:round;stroke:rgb(0%,0%,0%);stroke-opacity:1;stroke-miterlimit:10;" d="M 45 72 L 63 72 L 63 90 L 45 90 Z M 45 72 " transform="matrix(1.25,0,0,1.25,-10,-55)"/>
<path style=" stroke:none;fill-rule:nonzero;fill:rgb(100%,100%,100%);fill-opacity:1;" d="M 46.25 80 L 68.75 80 L 68.75 57.5 L 46.25 57.5 Z M 46.25 80 "/>
<path style="fill:none;stroke-width:1;stroke-linecap:round;stroke-linejoin:round;stroke:rgb(0%,0%,0%);stroke-opacity:1;stroke-miterlimit:10;" d="M 45 90 L 63 90 L 63 108 L 45 108 Z M 45 90 " transform="matrix(1.25,0,0,1.25,-10,-55)"/>
<path style=" stroke:none;fill-rule:nonzero;fill:rgb(40%,74.901961%,100%);fill-opacity:1;" d="M 57.5 113.75 L 80 113.75 L 80 91.25 L 57.5 91.25 Z M 57.5 113.75 "/>
<path style="fill:none;stroke-width:1;stroke-linecap:round;stroke-linejoin:round;stroke:rgb(0%,0%,0%);stroke-opacity:1;stroke-miterlimit:10;" d="M 54 117 L 72 117 L 72 135 L 54 135 Z M 54 117 " transform="matrix(1.25,0,0,1.25,-10,-55)"/>
<path style=" stroke:none;fill-rule:nonzero;fill:rgb(100%,100%,100%);fill-opacity:1;" d="M 57.5 68.75 L 80 68.75 L 80 46.25 L 57.5 46.25 Z M 57.5 68.75 "/>
<path style="fill:none;stroke-width:1;stroke-linecap:round;stroke-linejoin:round;stroke:rgb(0%,0%,0%);stroke-opacity:1;stroke-miterlimit:10;" d="M 54 81 L 72 81 L 72 99 L 54 99 Z M 54 81 " transform="matrix(1.25,0,0,1.25,-10,-55)"/>
<path style=" stroke:none;fill-rule:nonzero;fill:rgb(100%,100%,100%);fill-opacity:1;" d="M 57.5 91.25 L 80 91.25 L 80 68.75 L 57.5 68.75 Z M 57.5 91.25 "/>
<path style="fill:none;stroke-width:1;stroke-linecap:round;stroke-linejoin:round;stroke:rgb(0%,0%,0%);stroke-opacity:1;stroke-miterlimit:10;" d="M 54 99 L 72 99 L 72 117 L 54 117 Z M 54 99 " transform="matrix(1.25,0,0,1.25,-10,-55)"/>
<path style=" stroke:none;fill-rule:nonzero;fill:rgb(100%,100%,100%);fill-opacity:1;" d="M 12.5 113.75 L 35 113.75 L 35 91.25 L 12.5 91.25 Z M 12.5 113.75 "/>
<path style="fill:none;stroke-width:1;stroke-linecap:round;stroke-linejoin:round;stroke:rgb(0%,0%,0%);stroke-opacity:1;stroke-miterlimit:10;" d="M 18 117 L 36 117 L 36 135 L 18 135 Z M 18 117 " transform="matrix(1.25,0,0,1.25,-10,-55)"/>
<path style=" stroke:none;fill-rule:nonzero;fill:rgb(100%,100%,100%);fill-opacity:1;" d="M 35 113.75 L 57.5 113.75 L 57.5 91.25 L 35 91.25 Z M 35 113.75 "/>
<path style="fill:none;stroke-width:1;stroke-linecap:round;stroke-linejoin:round;stroke:rgb(0%,0%,0%);stroke-opacity:1;stroke-miterlimit:10;" d="M 36 117 L 54 117 L 54 135 L 36 135 Z M 36 117 " transform="matrix(1.25,0,0,1.25,-10,-55)"/>
<path style=" stroke:none;fill-rule:nonzero;fill:rgb(69.803922%,85.098039%,100%);fill-opacity:1;" d="M 12.5 68.75 L 35 68.75 L 35 46.25 L 12.5 46.25 Z M 12.5 68.75 "/>
<path style="fill:none;stroke-width:1;stroke-linecap:round;stroke-linejoin:round;stroke:rgb(0%,0%,0%);stroke-opacity:1;stroke-miterlimit:10;" d="M 18 81 L 36 81 L 36 99 L 18 99 Z M 18 81 " transform="matrix(1.25,0,0,1.25,-10,-55)"/>
<path style=" stroke:none;fill-rule:nonzero;fill:rgb(100%,100%,100%);fill-opacity:1;" d="M 12.5 91.25 L 35 91.25 L 35 68.75 L 12.5 68.75 Z M 12.5 91.25 "/>
<path style="fill:none;stroke-width:1;stroke-linecap:round;stroke-linejoin:round;stroke:rgb(0%,0%,0%);stroke-opacity:1;stroke-miterlimit:10;" d="M 18 99 L 36 99 L 36 117 L 18 117 Z M 18 99 " transform="matrix(1.25,0,0,1.25,-10,-55)"/>
<path style=" stroke:none;fill-rule:nonzero;fill:rgb(100%,100%,100%);fill-opacity:1;" d="M 35 68.75 L 57.5 68.75 L 57.5 46.25 L 35 46.25 Z M 35 68.75 "/>
<path style="fill:none;stroke-width:1;stroke-linecap:round;stroke-linejoin:round;stroke:rgb(0%,0%,0%);stroke-opacity:1;stroke-miterlimit:10;" d="M 36 81 L 54 81 L 54 99 L 36 99 Z M 36 81 " transform="matrix(1.25,0,0,1.25,-10,-55)"/>
<path style=" stroke:none;fill-rule:nonzero;fill:rgb(100%,100%,100%);fill-opacity:1;" d="M 35 91.25 L 57.5 91.25 L 57.5 68.75 L 35 68.75 Z M 35 91.25 "/>
<path style="fill:none;stroke-width:1;stroke-linecap:round;stroke-linejoin:round;stroke:rgb(0%,0%,0%);stroke-opacity:1;stroke-miterlimit:10;" d="M 36 99 L 54 99 L 54 117 L 36 117 Z M 36 99 " transform="matrix(1.25,0,0,1.25,-10,-55)"/>
<path style=" stroke:none;fill-rule:nonzero;fill:rgb(0%,0%,0%);fill-opacity:1;" d="M 288.296875 12.695312 L 288.296875 14.355469 L 287.183594 14.355469 C 287.457031 13.632812 287.730469 12.8125 287.964844 11.894531 L 290.132812 11.894531 L 290.132812 11.132812 L 288.160156 11.132812 C 288.257812 10.683594 288.355469 10.195312 288.472656 9.6875 L 287.730469 9.53125 C 287.613281 10.078125 287.515625 10.625 287.398438 11.132812 L 286.285156 11.132812 L 286.285156 11.894531 L 287.222656 11.894531 C 286.96875 12.890625 286.695312 13.75 286.363281 14.414062 L 286.539062 15.097656 L 288.296875 15.097656 L 288.296875 16.777344 C 287.632812 16.894531 286.949219 17.011719 286.207031 17.089844 L 286.304688 17.890625 C 286.988281 17.773438 287.652344 17.675781 288.296875 17.539062 L 288.296875 19.882812 L 289.039062 19.882812 L 289.039062 17.382812 L 290.113281 17.109375 L 290.113281 16.347656 C 289.78125 16.425781 289.429688 16.523438 289.039062 16.621094 L 289.039062 15.097656 L 290.074219 15.097656 L 290.074219 14.355469 L 289.039062 14.355469 L 289.039062 12.695312 Z M 291.617188 12.109375 L 291.617188 12.773438 L 294.839844 12.773438 L 294.839844 12.109375 L 291.617188 12.109375 C 292.183594 11.5625 292.730469 10.957031 293.257812 10.3125 C 294.117188 11.40625 295.074219 12.34375 296.128906 13.105469 L 296.558594 12.480469 C 295.542969 11.757812 294.546875 10.800781 293.550781 9.589844 L 292.984375 9.589844 C 292.066406 10.703125 291.03125 11.699219 289.878906 12.539062 L 290.328125 13.222656 C 290.757812 12.871094 291.1875 12.5 291.617188 12.109375 Z M 292.398438 19.804688 C 292.945312 19.804688 293.238281 19.511719 293.238281 18.925781 L 293.238281 13.671875 L 290.582031 13.671875 L 290.582031 19.882812 L 291.285156 19.882812 L 291.285156 17.773438 L 292.554688 17.773438 L 292.554688 18.789062 C 292.554688 19.023438 292.417969 19.160156 292.183594 19.160156 L 291.675781 19.140625 L 291.851562 19.804688 Z M 291.285156 17.148438 L 291.285156 16.074219 L 292.554688 16.074219 L 292.554688 17.148438 Z M 291.285156 15.449219 L 291.285156 14.335938 L 292.554688 14.335938 L 292.554688 15.449219 Z M 293.902344 13.984375 L 293.902344 18.027344 L 294.546875 18.027344 L 294.546875 13.984375 Z M 295.132812 19.824219 C 295.679688 19.824219 295.953125 19.492188 295.953125 18.847656 L 295.953125 13.476562 L 295.25 13.476562 L 295.25 18.671875 C 295.25 18.984375 295.132812 19.160156 294.878906 19.160156 C 294.605469 19.160156 294.3125 19.140625 294.019531 19.101562 L 294.175781 19.824219 Z M 295.132812 19.824219 "/>
<path style=" stroke:none;fill-rule:nonzero;fill:rgb(0%,0%,0%);fill-opacity:1;" d="M 305.640625 13.476562 L 303.003906 13.476562 L 303.003906 9.550781 L 302.183594 9.550781 L 302.183594 13.476562 L 299.546875 13.476562 L 299.546875 10.410156 L 298.726562 10.410156 L 298.726562 14.257812 L 302.183594 14.257812 L 302.183594 18.398438 L 299 18.398438 L 299 15.3125 L 298.179688 15.3125 L 298.179688 19.804688 L 299 19.804688 L 299 19.160156 L 306.1875 19.160156 L 306.1875 19.804688 L 307.007812 19.804688 L 307.007812 15.3125 L 306.1875 15.3125 L 306.1875 18.398438 L 303.003906 18.398438 L 303.003906 14.257812 L 306.460938 14.257812 L 306.460938 10.410156 L 305.640625 10.410156 Z M 305.640625 13.476562 "/>
<path style=" stroke:none;fill-rule:nonzero;fill:rgb(0%,0%,0%);fill-opacity:1;" d="M 167.230469 14.140625 C 167.582031 14.628906 167.972656 15.273438 168.421875 16.054688 L 168.871094 15.371094 C 168.324219 14.589844 167.777344 13.886719 167.230469 13.261719 L 167.230469 12.539062 L 168.558594 12.539062 L 168.558594 11.757812 L 167.230469 11.757812 L 167.230469 9.570312 L 166.46875 9.570312 L 166.46875 11.757812 L 164.90625 11.757812 L 164.90625 12.539062 L 166.429688 12.539062 C 166.097656 14.023438 165.511719 15.351562 164.710938 16.523438 L 165.0625 17.34375 C 165.628906 16.425781 166.097656 15.390625 166.46875 14.238281 L 166.46875 19.882812 L 167.230469 19.882812 Z M 168.851562 10.800781 L 168.851562 11.523438 L 171.019531 11.523438 C 170.316406 12.753906 169.730469 13.515625 169.28125 13.808594 C 169.242188 13.828125 169.203125 13.847656 169.125 13.867188 L 169.300781 14.53125 C 170.179688 14.492188 171.019531 14.453125 171.820312 14.414062 C 170.902344 15.449219 169.75 16.191406 168.402344 16.679688 L 168.832031 17.363281 C 171.019531 16.542969 172.660156 15.019531 173.792969 12.792969 L 173.128906 12.441406 C 172.914062 12.890625 172.640625 13.300781 172.347656 13.710938 C 171.664062 13.769531 170.941406 13.808594 170.238281 13.847656 C 170.707031 13.398438 171.234375 12.617188 171.859375 11.523438 L 174.945312 11.523438 L 174.945312 10.800781 L 172.445312 10.800781 C 172.289062 10.332031 172.113281 9.902344 171.957031 9.550781 L 171.117188 9.6875 C 171.3125 10.019531 171.507812 10.390625 171.664062 10.800781 Z M 172.445312 17.597656 C 173.285156 18.378906 173.949219 19.121094 174.4375 19.824219 L 175.023438 19.238281 C 174.457031 18.515625 173.753906 17.8125 172.953125 17.089844 C 173.675781 16.347656 174.320312 15.46875 174.867188 14.472656 L 174.183594 14.101562 C 172.855469 16.5625 170.882812 18.242188 168.246094 19.101562 L 168.675781 19.804688 C 170.121094 19.296875 171.371094 18.554688 172.445312 17.597656 Z M 172.445312 17.597656 "/>
<path style=" stroke:none;fill-rule:nonzero;fill:rgb(0%,0%,0%);fill-opacity:1;" d="M 177.933594 17.382812 C 179.007812 16.699219 180.023438 15.898438 180.980469 14.980469 L 180.980469 16.71875 C 180.980469 17.089844 180.824219 17.265625 180.511719 17.265625 C 180.179688 17.265625 179.867188 17.246094 179.574219 17.246094 L 179.789062 17.988281 L 180.804688 17.988281 C 181.410156 17.988281 181.722656 17.65625 181.722656 17.011719 L 181.722656 15.117188 C 182.40625 15.644531 183.246094 16.367188 184.222656 17.324219 L 184.691406 16.621094 C 183.675781 15.742188 182.699219 14.980469 181.722656 14.296875 L 181.722656 12.578125 C 182.835938 11.972656 183.832031 11.367188 184.730469 10.742188 L 184.730469 9.980469 L 177.757812 9.980469 L 177.757812 10.742188 L 183.519531 10.742188 C 182.953125 11.113281 182.113281 11.582031 180.980469 12.128906 L 180.980469 14.0625 C 179.90625 15.078125 178.8125 15.917969 177.640625 16.582031 Z M 184.925781 12.03125 L 184.925781 18.515625 L 177.425781 18.515625 L 177.425781 12.03125 L 176.644531 12.03125 L 176.644531 19.882812 L 177.425781 19.882812 L 177.425781 19.257812 L 184.925781 19.257812 L 184.925781 19.902344 L 185.707031 19.902344 L 185.707031 12.03125 Z M 178.636719 12.382812 L 178.050781 12.753906 C 178.695312 13.378906 179.222656 13.925781 179.613281 14.453125 L 180.238281 14.023438 C 179.867188 13.554688 179.339844 13.007812 178.636719 12.382812 Z M 183.753906 12.304688 C 183.34375 12.988281 182.816406 13.59375 182.230469 14.082031 L 182.816406 14.492188 C 183.421875 13.964844 183.96875 13.339844 184.417969 12.617188 Z M 183.753906 12.304688 "/>
<path style=" stroke:none;fill-rule:nonzero;fill:rgb(0%,0%,0%);fill-opacity:1;" d="M 194.203125 12.050781 L 195.863281 12.050781 C 195.824219 13.574219 195.589844 14.902344 195.140625 16.035156 C 194.691406 15.097656 194.339844 13.964844 194.066406 12.636719 Z M 194.769531 16.855469 C 194.261719 17.8125 193.578125 18.574219 192.699219 19.179688 L 193.109375 19.863281 C 193.949219 19.257812 194.652344 18.496094 195.199219 17.597656 C 195.746094 18.554688 196.429688 19.316406 197.210938 19.882812 L 197.660156 19.21875 C 196.839844 18.652344 196.15625 17.890625 195.570312 16.875 C 196.214844 15.546875 196.546875 13.925781 196.605469 12.050781 L 197.347656 12.050781 L 197.347656 11.289062 L 194.378906 11.289062 C 194.457031 10.78125 194.554688 10.253906 194.613281 9.667969 L 193.832031 9.53125 C 193.597656 11.679688 193.148438 13.378906 192.484375 14.628906 L 192.992188 15.253906 C 193.226562 14.84375 193.460938 14.394531 193.65625 13.867188 C 193.96875 15 194.339844 15.976562 194.769531 16.855469 Z M 189.4375 14.785156 C 189.359375 15.019531 189.28125 15.253906 189.183594 15.507812 L 187.523438 15.507812 L 187.523438 16.210938 L 188.851562 16.210938 C 188.636719 16.660156 188.382812 17.109375 188.089844 17.617188 C 188.636719 17.8125 189.144531 18.027344 189.652344 18.242188 C 188.988281 18.613281 188.1875 18.925781 187.269531 19.160156 L 187.660156 19.84375 C 188.773438 19.53125 189.710938 19.101562 190.453125 18.59375 C 191.117188 18.886719 191.703125 19.179688 192.191406 19.472656 L 192.621094 18.847656 C 192.132812 18.574219 191.625 18.339844 191.078125 18.085938 C 191.664062 17.539062 192.074219 16.914062 192.328125 16.171875 L 192.328125 15.507812 L 189.964844 15.507812 C 190.042969 15.292969 190.121094 15.097656 190.199219 14.882812 Z M 190.335938 17.773438 C 189.925781 17.597656 189.496094 17.441406 189.046875 17.285156 C 189.28125 16.953125 189.476562 16.582031 189.652344 16.210938 L 191.585938 16.210938 C 191.332031 16.796875 190.902344 17.324219 190.335938 17.773438 Z M 188.421875 9.765625 L 187.777344 9.980469 C 188.050781 10.410156 188.304688 10.898438 188.539062 11.445312 L 189.125 11.171875 C 188.910156 10.683594 188.695312 10.214844 188.421875 9.765625 Z M 191.839844 9.746094 C 191.644531 10.214844 191.351562 10.683594 190.980469 11.171875 L 191.566406 11.464844 C 191.917969 10.996094 192.191406 10.507812 192.425781 10 Z M 187.5625 11.71875 L 187.5625 12.421875 L 189.144531 12.421875 C 188.8125 13.046875 188.207031 13.613281 187.347656 14.121094 L 187.738281 14.765625 C 188.695312 14.121094 189.378906 13.359375 189.75 12.460938 L 189.75 14.589844 L 190.511719 14.589844 L 190.511719 13.144531 C 190.902344 13.398438 191.390625 13.769531 191.957031 14.21875 L 192.367188 13.59375 C 191.742188 13.203125 191.117188 12.851562 190.511719 12.558594 L 190.511719 12.421875 L 192.542969 12.421875 L 192.542969 11.71875 L 190.511719 11.71875 L 190.511719 9.570312 L 189.75 9.570312 L 189.75 11.71875 Z M 187.5625 11.71875 "/>
<path style=" stroke:none;fill-rule:nonzero;fill:rgb(0%,0%,0%);fill-opacity:1;" d="M 42.578125 12.695312 L 42.578125 14.355469 L 41.464844 14.355469 C 41.738281 13.632812 42.011719 12.8125 42.246094 11.894531 L 44.414062 11.894531 L 44.414062 11.132812 L 42.441406 11.132812 C 42.539062 10.683594 42.636719 10.195312 42.753906 9.6875 L 42.011719 9.53125 C 41.894531 10.078125 41.796875 10.625 41.679688 11.132812 L 40.566406 11.132812 L 40.566406 11.894531 L 41.503906 11.894531 C 41.25 12.890625 40.976562 13.75 40.644531 14.414062 L 40.820312 15.097656 L 42.578125 15.097656 L 42.578125 16.777344 C 41.914062 16.894531 41.230469 17.011719 40.488281 17.089844 L 40.585938 17.890625 C 41.269531 17.773438 41.933594 17.675781 42.578125 17.539062 L 42.578125 19.882812 L 43.320312 19.882812 L 43.320312 17.382812 L 44.394531 17.109375 L 44.394531 16.347656 C 44.0625 16.425781 43.710938 16.523438 43.320312 16.621094 L 43.320312 15.097656 L 44.355469 15.097656 L 44.355469 14.355469 L 43.320312 14.355469 L 43.320312 12.695312 Z M 45.898438 12.109375 L 45.898438 12.773438 L 49.121094 12.773438 L 49.121094 12.109375 L 45.898438 12.109375 C 46.464844 11.5625 47.011719 10.957031 47.539062 10.3125 C 48.398438 11.40625 49.355469 12.34375 50.410156 13.105469 L 50.839844 12.480469 C 49.824219 11.757812 48.828125 10.800781 47.832031 9.589844 L 47.265625 9.589844 C 46.347656 10.703125 45.3125 11.699219 44.160156 12.539062 L 44.609375 13.222656 C 45.039062 12.871094 45.46875 12.5 45.898438 12.109375 Z M 46.679688 19.804688 C 47.226562 19.804688 47.519531 19.511719 47.519531 18.925781 L 47.519531 13.671875 L 44.863281 13.671875 L 44.863281 19.882812 L 45.566406 19.882812 L 45.566406 17.773438 L 46.835938 17.773438 L 46.835938 18.789062 C 46.835938 19.023438 46.699219 19.160156 46.464844 19.160156 L 45.957031 19.140625 L 46.132812 19.804688 Z M 45.566406 17.148438 L 45.566406 16.074219 L 46.835938 16.074219 L 46.835938 17.148438 Z M 45.566406 15.449219 L 45.566406 14.335938 L 46.835938 14.335938 L 46.835938 15.449219 Z M 48.183594 13.984375 L 48.183594 18.027344 L 48.828125 18.027344 L 48.828125 13.984375 Z M 49.414062 19.824219 C 49.960938 19.824219 50.234375 19.492188 50.234375 18.847656 L 50.234375 13.476562 L 49.53125 13.476562 L 49.53125 18.671875 C 49.53125 18.984375 49.414062 19.160156 49.160156 19.160156 C 48.886719 19.160156 48.59375 19.140625 48.300781 19.101562 L 48.457031 19.824219 Z M 49.414062 19.824219 "/>
<path style=" stroke:none;fill-rule:nonzero;fill:rgb(0%,0%,0%);fill-opacity:1;" d="M 56.386719 12.167969 C 55.664062 15.15625 54.101562 17.460938 51.679688 19.023438 L 52.167969 19.726562 C 54.53125 18.183594 56.09375 15.976562 56.835938 13.105469 C 56.894531 13.242188 56.933594 13.398438 57.011719 13.59375 C 58.164062 16.5625 59.648438 18.613281 61.484375 19.707031 L 61.992188 19.0625 C 60.195312 17.949219 58.789062 16.035156 57.734375 13.359375 C 57.050781 11.523438 56.191406 10.253906 55.195312 9.550781 L 54.53125 9.980469 C 55.234375 10.507812 55.859375 11.230469 56.386719 12.167969 Z M 56.386719 12.167969 "/>
<path style=" stroke:none;fill-rule:nonzero;fill:rgb(40%,74.901961%,100%);fill-opacity:1;" d="M 46.25 125 L 68.75 125 L 68.75 102.5 L 46.25 102.5 Z M 46.25 125 "/>
<path style="fill:none;stroke-width:1;stroke-linecap:round;stroke-linejoin:round;stroke:rgb(0%,0%,0%);stroke-opacity:1;stroke-miterlimit:10;" d="M 45 126 L 63 126 L 63 144 L 45 144 Z M 45 126 " transform="matrix(1.25,0,0,1.25,-10,-55)"/>
<path style=" stroke:none;fill-rule:nonzero;fill:rgb(100%,100%,100%);fill-opacity:1;" d="M 46.25 80 L 68.75 80 L 68.75 57.5 L 46.25 57.5 Z M 46.25 80 "/>
<path style="fill:none;stroke-width:1;stroke-linecap:round;stroke-linejoin:round;stroke:rgb(0%,0%,0%);stroke-opacity:1;stroke-miterlimit:10;" d="M 45 90 L 63 90 L 63 108 L 45 108 Z M 45 90 " transform="matrix(1.25,0,0,1.25,-10,-55)"/>
<path style=" stroke:none;fill-rule:nonzero;fill:rgb(100%,100%,100%);fill-opacity:1;" d="M 46.25 102.5 L 68.75 102.5 L 68.75 80 L 46.25 80 Z M 46.25 102.5 "/>
<path style="fill:none;stroke-width:1;stroke-linecap:round;stroke-linejoin:round;stroke:rgb(0%,0%,0%);stroke-opacity:1;stroke-miterlimit:10;" d="M 45 108 L 63 108 L 63 126 L 45 126 Z M 45 108 " transform="matrix(1.25,0,0,1.25,-10,-55)"/>
<path style=" stroke:none;fill-rule:nonzero;fill:rgb(100%,100%,100%);fill-opacity:1;" d="M 1.25 125 L 23.75 125 L 23.75 102.5 L 1.25 102.5 Z M 1.25 125 "/>
<path style="fill:none;stroke-width:1;stroke-linecap:round;stroke-linejoin:round;stroke:rgb(0%,0%,0%);stroke-opacity:1;stroke-miterlimit:10;" d="M 9 126 L 27 126 L 27 144 L 9 144 Z M 9 126 " transform="matrix(1.25,0,0,1.25,-10,-55)"/>
<path style=" stroke:none;fill-rule:nonzero;fill:rgb(100%,100%,100%);fill-opacity:1;" d="M 23.75 125 L 46.25 125 L 46.25 102.5 L 23.75 102.5 Z M 23.75 125 "/>
<path style="fill:none;stroke-width:1;stroke-linecap:round;stroke-linejoin:round;stroke:rgb(0%,0%,0%);stroke-opacity:1;stroke-miterlimit:10;" d="M 27 126 L 45 126 L 45 144 L 27 144 Z M 27 126 " transform="matrix(1.25,0,0,1.25,-10,-55)"/>
<path style=" stroke:none;fill-rule:nonzero;fill:rgb(69.803922%,85.098039%,100%);fill-opacity:1;" d="M 1.25 80 L 23.75 80 L 23.75 57.5 L 1.25 57.5 Z M 1.25 80 "/>
<path style="fill:none;stroke-width:1;stroke-linecap:round;stroke-linejoin:round;stroke:rgb(0%,0%,0%);stroke-opacity:1;stroke-miterlimit:10;" d="M 9 90 L 27 90 L 27 108 L 9 108 Z M 9 90 " transform="matrix(1.25,0,0,1.25,-10,-55)"/>
<path style=" stroke:none;fill-rule:nonzero;fill:rgb(100%,100%,100%);fill-opacity:1;" d="M 1.25 102.5 L 23.75 102.5 L 23.75 80 L 1.25 80 Z M 1.25 102.5 "/>
<path style="fill:none;stroke-width:1;stroke-linecap:round;stroke-linejoin:round;stroke:rgb(0%,0%,0%);stroke-opacity:1;stroke-miterlimit:10;" d="M 9 108 L 27 108 L 27 126 L 9 126 Z M 9 108 " transform="matrix(1.25,0,0,1.25,-10,-55)"/>
<path style=" stroke:none;fill-rule:nonzero;fill:rgb(100%,100%,100%);fill-opacity:1;" d="M 23.75 80 L 46.25 80 L 46.25 57.5 L 23.75 57.5 Z M 23.75 80 "/>
<path style="fill:none;stroke-width:1;stroke-linecap:round;stroke-linejoin:round;stroke:rgb(0%,0%,0%);stroke-opacity:1;stroke-miterlimit:10;" d="M 27 90 L 45 90 L 45 108 L 27 108 Z M 27 90 " transform="matrix(1.25,0,0,1.25,-10,-55)"/>
<path style=" stroke:none;fill-rule:nonzero;fill:rgb(100%,100%,100%);fill-opacity:1;" d="M 23.75 102.5 L 46.25 102.5 L 46.25 80 L 23.75 80 Z M 23.75 102.5 "/>
<path style="fill:none;stroke-width:1;stroke-linecap:round;stroke-linejoin:round;stroke:rgb(0%,0%,0%);stroke-opacity:1;stroke-miterlimit:10;" d="M 27 108 L 45 108 L 45 126 L 27 126 Z M 27 108 " transform="matrix(1.25,0,0,1.25,-10,-55)"/>
<path style=" stroke:none;fill-rule:nonzero;fill:rgb(0%,0%,0%);fill-opacity:1;" d="M 114.300781 78.214844 L 114.808594 76.652344 C 115.964844 77.058594 116.808594 77.410156 117.347656 77.707031 C 117.199219 76.394531 117.132812 75.480469 117.132812 74.972656 L 118.714844 74.972656 C 118.683594 75.703125 118.601562 76.613281 118.460938 77.707031 C 119.210938 77.332031 120.082031 76.980469 121.058594 76.652344 L 121.566406 78.214844 C 120.628906 78.515625 119.714844 78.71875 118.832031 78.820312 C 119.269531 79.210938 119.90625 79.902344 120.726562 80.890625 L 119.398438 81.828125 C 118.96875 81.257812 118.464844 80.46875 117.894531 79.464844 C 117.347656 80.507812 116.867188 81.296875 116.46875 81.828125 L 115.160156 80.890625 C 116.019531 79.851562 116.628906 79.160156 116.996094 78.820312 C 116.042969 78.640625 115.144531 78.4375 114.300781 78.214844 Z M 114.300781 78.214844 "/>
<path style=" stroke:none;fill-rule:nonzero;fill:rgb(0%,0%,0%);fill-opacity:1;" d="M 228.523438 77.660156 L 217.878906 77.660156 L 217.878906 75.824219 L 228.523438 75.824219 Z M 228.523438 82.542969 L 217.878906 82.542969 L 217.878906 80.707031 L 228.523438 80.707031 Z M 228.523438 82.542969 "/>
<path style=" stroke:none;fill-rule:nonzero;fill:rgb(69.803922%,85.098039%,100%);fill-opacity:1;" d="M 166.210938 57.5 L 188.710938 57.5 L 188.710938 35 L 166.210938 35 Z M 166.210938 57.5 "/>
<path style="fill:none;stroke-width:1;stroke-linecap:round;stroke-linejoin:round;stroke:rgb(0%,0%,0%);stroke-opacity:1;stroke-miterlimit:10;" d="M 140.96875 72 L 158.96875 72 L 158.96875 90 L 140.96875 90 Z M 140.96875 72 " transform="matrix(1.25,0,0,1.25,-10,-55)"/>
<path style=" stroke:none;fill-rule:nonzero;fill:rgb(69.803922%,85.098039%,100%);fill-opacity:1;" d="M 154.960938 68.75 L 177.460938 68.75 L 177.460938 46.25 L 154.960938 46.25 Z M 154.960938 68.75 "/>
<path style="fill:none;stroke-width:1;stroke-linecap:round;stroke-linejoin:round;stroke:rgb(0%,0%,0%);stroke-opacity:1;stroke-miterlimit:10;" d="M 131.96875 81 L 149.96875 81 L 149.96875 99 L 131.96875 99 Z M 131.96875 81 " transform="matrix(1.25,0,0,1.25,-10,-55)"/>
<path style=" stroke:none;fill-rule:nonzero;fill:rgb(69.803922%,85.098039%,100%);fill-opacity:1;" d="M 143.710938 80 L 166.210938 80 L 166.210938 57.5 L 143.710938 57.5 Z M 143.710938 80 "/>
<path style="fill:none;stroke-width:1;stroke-linecap:round;stroke-linejoin:round;stroke:rgb(0%,0%,0%);stroke-opacity:1;stroke-miterlimit:10;" d="M 122.96875 90 L 140.96875 90 L 140.96875 108 L 122.96875 108 Z M 122.96875 90 " transform="matrix(1.25,0,0,1.25,-10,-55)"/>
<path style=" stroke:none;fill-rule:nonzero;fill:rgb(40%,74.901961%,100%);fill-opacity:1;" d="M 166.210938 102.5 L 188.710938 102.5 L 188.710938 80 L 166.210938 80 Z M 166.210938 102.5 "/>
<path style="fill:none;stroke-width:1;stroke-linecap:round;stroke-linejoin:round;stroke:rgb(0%,0%,0%);stroke-opacity:1;stroke-miterlimit:10;" d="M 140.96875 108 L 158.96875 108 L 158.96875 126 L 140.96875 126 Z M 140.96875 108 " transform="matrix(1.25,0,0,1.25,-10,-55)"/>
<path style=" stroke:none;fill-rule:nonzero;fill:rgb(40%,74.901961%,100%);fill-opacity:1;" d="M 154.960938 113.75 L 177.460938 113.75 L 177.460938 91.25 L 154.960938 91.25 Z M 154.960938 113.75 "/>
<path style="fill:none;stroke-width:1;stroke-linecap:round;stroke-linejoin:round;stroke:rgb(0%,0%,0%);stroke-opacity:1;stroke-miterlimit:10;" d="M 131.96875 117 L 149.96875 117 L 149.96875 135 L 131.96875 135 Z M 131.96875 117 " transform="matrix(1.25,0,0,1.25,-10,-55)"/>
<path style=" stroke:none;fill-rule:nonzero;fill:rgb(40%,74.901961%,100%);fill-opacity:1;" d="M 143.710938 125 L 166.210938 125 L 166.210938 102.5 L 143.710938 102.5 Z M 143.710938 125 "/>
<path style="fill:none;stroke-width:1;stroke-linecap:round;stroke-linejoin:round;stroke:rgb(0%,0%,0%);stroke-opacity:1;stroke-miterlimit:10;" d="M 122.96875 126 L 140.96875 126 L 140.96875 144 L 122.96875 144 Z M 122.96875 126 " transform="matrix(1.25,0,0,1.25,-10,-55)"/>
<path style=" stroke:none;fill-rule:nonzero;fill:rgb(40%,74.901961%,100%);fill-opacity:1;" d="M 313.21875 109.203125 L 335.71875 109.203125 L 335.71875 86.703125 L 313.21875 86.703125 Z M 313.21875 109.203125 "/>
<path style="fill:none;stroke-width:1;stroke-linecap:round;stroke-linejoin:round;stroke:rgb(0%,0%,0%);stroke-opacity:1;stroke-miterlimit:10;" d="M 258.575 113.3625 L 276.575 113.3625 L 276.575 131.3625 L 258.575 131.3625 Z M 258.575 113.3625 " transform="matrix(1.25,0,0,1.25,-10,-55)"/>
<path style=" stroke:none;fill-rule:nonzero;fill:rgb(100%,100%,100%);fill-opacity:1;" d="M 313.21875 64.203125 L 335.71875 64.203125 L 335.71875 41.703125 L 313.21875 41.703125 Z M 313.21875 64.203125 "/>
<path style="fill:none;stroke-width:1;stroke-linecap:round;stroke-linejoin:round;stroke:rgb(0%,0%,0%);stroke-opacity:1;stroke-miterlimit:10;" d="M 258.575 77.3625 L 276.575 77.3625 L 276.575 95.3625 L 258.575 95.3625 Z M 258.575 77.3625 " transform="matrix(1.25,0,0,1.25,-10,-55)"/>
<path style=" stroke:none;fill-rule:nonzero;fill:rgb(100%,100%,100%);fill-opacity:1;" d="M 313.21875 86.703125 L 335.71875 86.703125 L 335.71875 64.203125 L 313.21875 64.203125 Z M 313.21875 86.703125 "/>
<path style="fill:none;stroke-width:1;stroke-linecap:round;stroke-linejoin:round;stroke:rgb(0%,0%,0%);stroke-opacity:1;stroke-miterlimit:10;" d="M 258.575 95.3625 L 276.575 95.3625 L 276.575 113.3625 L 258.575 113.3625 Z M 258.575 95.3625 " transform="matrix(1.25,0,0,1.25,-10,-55)"/>
<path style=" stroke:none;fill-rule:nonzero;fill:rgb(100%,100%,100%);fill-opacity:1;" d="M 268.21875 109.203125 L 290.71875 109.203125 L 290.71875 86.703125 L 268.21875 86.703125 Z M 268.21875 109.203125 "/>
<path style="fill:none;stroke-width:1;stroke-linecap:round;stroke-linejoin:round;stroke:rgb(0%,0%,0%);stroke-opacity:1;stroke-miterlimit:10;" d="M 222.575 113.3625 L 240.575 113.3625 L 240.575 131.3625 L 222.575 131.3625 Z M 222.575 113.3625 " transform="matrix(1.25,0,0,1.25,-10,-55)"/>
<path style=" stroke:none;fill-rule:nonzero;fill:rgb(100%,100%,100%);fill-opacity:1;" d="M 290.71875 109.203125 L 313.21875 109.203125 L 313.21875 86.703125 L 290.71875 86.703125 Z M 290.71875 109.203125 "/>
<path style="fill:none;stroke-width:1;stroke-linecap:round;stroke-linejoin:round;stroke:rgb(0%,0%,0%);stroke-opacity:1;stroke-miterlimit:10;" d="M 240.575 113.3625 L 258.575 113.3625 L 258.575 131.3625 L 240.575 131.3625 Z M 240.575 113.3625 " transform="matrix(1.25,0,0,1.25,-10,-55)"/>
<path style=" stroke:none;fill-rule:nonzero;fill:rgb(100%,100%,100%);fill-opacity:1;" d="M 268.21875 64.203125 L 290.71875 64.203125 L 290.71875 41.703125 L 268.21875 41.703125 Z M 268.21875 64.203125 "/>
<path style="fill:none;stroke-width:1;stroke-linecap:round;stroke-linejoin:round;stroke:rgb(0%,0%,0%);stroke-opacity:1;stroke-miterlimit:10;" d="M 222.575 77.3625 L 240.575 77.3625 L 240.575 95.3625 L 222.575 95.3625 Z M 222.575 77.3625 " transform="matrix(1.25,0,0,1.25,-10,-55)"/>
<path style=" stroke:none;fill-rule:nonzero;fill:rgb(100%,100%,100%);fill-opacity:1;" d="M 268.21875 86.703125 L 290.71875 86.703125 L 290.71875 64.203125 L 268.21875 64.203125 Z M 268.21875 86.703125 "/>
<path style="fill:none;stroke-width:1;stroke-linecap:round;stroke-linejoin:round;stroke:rgb(0%,0%,0%);stroke-opacity:1;stroke-miterlimit:10;" d="M 222.575 95.3625 L 240.575 95.3625 L 240.575 113.3625 L 222.575 113.3625 Z M 222.575 95.3625 " transform="matrix(1.25,0,0,1.25,-10,-55)"/>
<path style=" stroke:none;fill-rule:nonzero;fill:rgb(100%,100%,100%);fill-opacity:1;" d="M 290.71875 64.203125 L 313.21875 64.203125 L 313.21875 41.703125 L 290.71875 41.703125 Z M 290.71875 64.203125 "/>
<path style="fill:none;stroke-width:1;stroke-linecap:round;stroke-linejoin:round;stroke:rgb(0%,0%,0%);stroke-opacity:1;stroke-miterlimit:10;" d="M 240.575 77.3625 L 258.575 77.3625 L 258.575 95.3625 L 240.575 95.3625 Z M 240.575 77.3625 " transform="matrix(1.25,0,0,1.25,-10,-55)"/>
<path style=" stroke:none;fill-rule:nonzero;fill:rgb(100%,100%,100%);fill-opacity:1;" d="M 290.71875 86.703125 L 313.21875 86.703125 L 313.21875 64.203125 L 290.71875 64.203125 Z M 290.71875 86.703125 "/>
<path style="fill:none;stroke-width:1;stroke-linecap:round;stroke-linejoin:round;stroke:rgb(0%,0%,0%);stroke-opacity:1;stroke-miterlimit:10;" d="M 240.575 95.3625 L 258.575 95.3625 L 258.575 113.3625 L 240.575 113.3625 Z M 240.575 95.3625 " transform="matrix(1.25,0,0,1.25,-10,-55)"/>
<path style=" stroke:none;fill-rule:nonzero;fill:rgb(100%,100%,100%);fill-opacity:1;" d="M 301.96875 120.453125 L 324.46875 120.453125 L 324.46875 97.953125 L 301.96875 97.953125 Z M 301.96875 120.453125 "/>
<path style="fill:none;stroke-width:1;stroke-linecap:round;stroke-linejoin:round;stroke:rgb(0%,0%,0%);stroke-opacity:1;stroke-miterlimit:10;" d="M 249.575 122.3625 L 267.575 122.3625 L 267.575 140.3625 L 249.575 140.3625 Z M 249.575 122.3625 " transform="matrix(1.25,0,0,1.25,-10,-55)"/>
<path style=" stroke:none;fill-rule:nonzero;fill:rgb(100%,100%,100%);fill-opacity:1;" d="M 301.96875 75.453125 L 324.46875 75.453125 L 324.46875 52.953125 L 301.96875 52.953125 Z M 301.96875 75.453125 "/>
<path style="fill:none;stroke-width:1;stroke-linecap:round;stroke-linejoin:round;stroke:rgb(0%,0%,0%);stroke-opacity:1;stroke-miterlimit:10;" d="M 249.575 86.3625 L 267.575 86.3625 L 267.575 104.3625 L 249.575 104.3625 Z M 249.575 86.3625 " transform="matrix(1.25,0,0,1.25,-10,-55)"/>
<path style=" stroke:none;fill-rule:nonzero;fill:rgb(100%,100%,100%);fill-opacity:1;" d="M 301.96875 97.953125 L 324.46875 97.953125 L 324.46875 75.453125 L 301.96875 75.453125 Z M 301.96875 97.953125 "/>
<path style="fill:none;stroke-width:1;stroke-linecap:round;stroke-linejoin:round;stroke:rgb(0%,0%,0%);stroke-opacity:1;stroke-miterlimit:10;" d="M 249.575 104.3625 L 267.575 104.3625 L 267.575 122.3625 L 249.575 122.3625 Z M 249.575 104.3625 " transform="matrix(1.25,0,0,1.25,-10,-55)"/>
<path style=" stroke:none;fill-rule:nonzero;fill:rgb(100%,100%,100%);fill-opacity:1;" d="M 256.96875 120.453125 L 279.46875 120.453125 L 279.46875 97.953125 L 256.96875 97.953125 Z M 256.96875 120.453125 "/>
<path style="fill:none;stroke-width:1;stroke-linecap:round;stroke-linejoin:round;stroke:rgb(0%,0%,0%);stroke-opacity:1;stroke-miterlimit:10;" d="M 213.575 122.3625 L 231.575 122.3625 L 231.575 140.3625 L 213.575 140.3625 Z M 213.575 122.3625 " transform="matrix(1.25,0,0,1.25,-10,-55)"/>
<path style=" stroke:none;fill-rule:nonzero;fill:rgb(100%,100%,100%);fill-opacity:1;" d="M 279.46875 120.453125 L 301.96875 120.453125 L 301.96875 97.953125 L 279.46875 97.953125 Z M 279.46875 120.453125 "/>
<path style="fill:none;stroke-width:1;stroke-linecap:round;stroke-linejoin:round;stroke:rgb(0%,0%,0%);stroke-opacity:1;stroke-miterlimit:10;" d="M 231.575 122.3625 L 249.575 122.3625 L 249.575 140.3625 L 231.575 140.3625 Z M 231.575 122.3625 " transform="matrix(1.25,0,0,1.25,-10,-55)"/>
<path style=" stroke:none;fill-rule:nonzero;fill:rgb(69.803922%,85.098039%,100%);fill-opacity:1;" d="M 256.96875 75.453125 L 279.46875 75.453125 L 279.46875 52.953125 L 256.96875 52.953125 Z M 256.96875 75.453125 "/>
<path style="fill:none;stroke-width:1;stroke-linecap:round;stroke-linejoin:round;stroke:rgb(0%,0%,0%);stroke-opacity:1;stroke-miterlimit:10;" d="M 213.575 86.3625 L 231.575 86.3625 L 231.575 104.3625 L 213.575 104.3625 Z M 213.575 86.3625 " transform="matrix(1.25,0,0,1.25,-10,-55)"/>
<path style=" stroke:none;fill-rule:nonzero;fill:rgb(100%,100%,100%);fill-opacity:1;" d="M 256.96875 97.953125 L 279.46875 97.953125 L 279.46875 75.453125 L 256.96875 75.453125 Z M 256.96875 97.953125 "/>
<path style="fill:none;stroke-width:1;stroke-linecap:round;stroke-linejoin:round;stroke:rgb(0%,0%,0%);stroke-opacity:1;stroke-miterlimit:10;" d="M 213.575 104.3625 L 231.575 104.3625 L 231.575 122.3625 L 213.575 122.3625 Z M 213.575 104.3625 " transform="matrix(1.25,0,0,1.25,-10,-55)"/>
<path style=" stroke:none;fill-rule:nonzero;fill:rgb(100%,100%,100%);fill-opacity:1;" d="M 279.46875 75.453125 L 301.96875 75.453125 L 301.96875 52.953125 L 279.46875 52.953125 Z M 279.46875 75.453125 "/>
<path style="fill:none;stroke-width:1;stroke-linecap:round;stroke-linejoin:round;stroke:rgb(0%,0%,0%);stroke-opacity:1;stroke-miterlimit:10;" d="M 231.575 86.3625 L 249.575 86.3625 L 249.575 104.3625 L 231.575 104.3625 Z M 231.575 86.3625 " transform="matrix(1.25,0,0,1.25,-10,-55)"/>
<path style=" stroke:none;fill-rule:nonzero;fill:rgb(100%,100%,100%);fill-opacity:1;" d="M 279.46875 97.953125 L 301.96875 97.953125 L 301.96875 75.453125 L 279.46875 75.453125 Z M 279.46875 97.953125 "/>
<path style="fill:none;stroke-width:1;stroke-linecap:round;stroke-linejoin:round;stroke:rgb(0%,0%,0%);stroke-opacity:1;stroke-miterlimit:10;" d="M 231.575 104.3625 L 249.575 104.3625 L 249.575 122.3625 L 231.575 122.3625 Z M 231.575 104.3625 " transform="matrix(1.25,0,0,1.25,-10,-55)"/>
</g>
</svg>
